<svg xmlns="http://www.w3.org/2000/svg" width="25.14" height="21.369" viewBox="0 0 25.14 21.369">
  <g id="Group_12655" data-name="Group 12655" transform="translate(-2.514 -4.399)">
    <path id="Vector" d="M18.855,21.369H6.285C2.514,21.369,0,19.483,0,15.084v-8.8C0,1.885,2.514,0,6.285,0h12.57c3.771,0,6.285,1.885,6.285,6.285v8.8C25.14,19.483,22.626,21.369,18.855,21.369Z" transform="translate(2.514 4.399)" fill="#f38313" opacity="0.4"/>
    <g id="Group" transform="translate(7.852 10.363)">
      <path id="Vector-2" data-name="Vector" d="M7.231,5.815A4.673,4.673,0,0,1,4.29,4.822L.355,1.679A.939.939,0,0,1,1.524.208L5.459,3.351a3,3,0,0,0,3.532,0L12.925.208a.928.928,0,0,1,1.32.151.928.928,0,0,1-.151,1.32L10.16,4.822A4.613,4.613,0,0,1,7.231,5.815Z" transform="translate(0 0)" fill="#f38313"/>
    </g>
  </g>
</svg>
